# xmcd CD database file
#
# Track frame offsets:
#	150
#	3887
#	21640
#	33083
#	49929
#	64326
#	83853
#	100131
#	116247
#	130798
#	148253
#	183782
#	204101
#	221900
#	237899
#	264232
#	282231
#	295448
#
# Disc length: 4127 seconds
#
# Revision: 2
# Processed by: cddbd v1.4b41PL1 Copyright (c) Steve Scherf et al.
# Submitted via: Feurio! 1.60 - http://www.feurio.com
#
DISCID=03101d12,0c101d12
DTITLE=The Inchtabokatables - Best Of Nine Inch Years
DYEAR=1900
DGENRE=
TTITLE0=Intro
TTITLE1=Hoiwoy
TTITLE2=Three Gipsys
TTITLE3=Wars Only Wars
TTITLE4=Rightful King
TTITLE5=Old Indian
TTITLE6=Die Taube
TTITLE7=Übertrieben
TTITLE8=Sleep Tight
TTITLE9=Keep In Mind
TTITLE10=Lovesong
TTITLE11=You Chained Me Up
TTITLE12=Too Loud
TTITLE13=My Eyes 
TTITLE14=Sleep Well
TTITLE15=Time Out
TTITLE16=X-mas In The Old/Mans Hat
TTITLE17=Meine Ex(Plodierte)  Freundin
EXTD=
EXTT0=
EXTT1=
EXTT2=
EXTT3=
EXTT4=
EXTT5=
EXTT6=
EXTT7=
EXTT8=
EXTT9=
EXTT10=
EXTT11=
EXTT12=
EXTT13=
EXTT14=
EXTT15=
EXTT16=
EXTT17=Featering: Marion Brasch
PLAYORDER=
